<?xml version="1.0" encoding="utf-8"?>
<!-- Generator: Adobe Illustrator 24.0.1, SVG Export Plug-In . SVG Version: 6.00 Build 0)  -->
<svg version="1.1" id="Lager_1" xmlns="http://www.w3.org/2000/svg" xmlns:xlink="http://www.w3.org/1999/xlink" x="0px" y="0px"
	 viewBox="0 0 1366 768" style="enable-background:new 0 0 1366 768;" xml:space="preserve">
<style type="text/css">
	.st0{fill:none;}
	.st1{opacity:0.89;fill:#8A56C5;}
	.st2{fill:#FFFFFF;}
	.st3{opacity:0.89;fill:#CC07B3;}
	.st4{opacity:0.81;fill:#453940;}
	.st5{opacity:0.89;fill:#8C2D8F;stroke:url(#Unnamed_Pattern_2);stroke-miterlimit:10;}
	.st6{clip-path:url(#SVGID_2_);}
	.st7{fill:none;stroke:#FFFFFF;stroke-miterlimit:10;}
	.st8{fill:#2B454E;}
	.st9{font-family:'Arcon-Regular';}
	.st10{font-size:35px;}
	.st11{letter-spacing:3;}
	.st12{font-family:'Roboto-Regular';}
	.st13{font-size:21.9027px;}
	.st14{letter-spacing:2;}
</style>
<pattern  width="95.22" height="65.15" patternUnits="userSpaceOnUse" id="Unnamed_Pattern_2" viewBox="0.36 -65.68 95.22 65.15" style="overflow:visible;">
	<g>
		<rect x="0.36" y="-65.68" class="st0" width="95.22" height="65.15"/>
		<path class="st1" d="M0.37-34.65C0-50.92,31.03-65.12,55.15-65.67c24.12-0.54,40.06,18.4,40.43,34.68
			c0.37,16.27-10.62,29.72-43,30.45C28.46,0,0.73-18.38,0.37-34.65z"/>
	</g>
</pattern>
<g>
	<g>
		<path class="st2" d="M639.23,330.67c-0.25-11.24-7.94-23.74-20.61-30.23c8.04-5.67,13.42-12.61,12.41-19.14
			c-1.11-7.21-7.7-12.77-16.63-15.8c3.87-2.68,5.52-6.14,4.94-10.51c-1.19-9.01-11.2-18.57-24.56-16.8
			c-13.36,1.77-24.41,11.26-23.22,20.27c0.42,3.18,1.74,5.95,3.83,8.15c-15.82,4.46-22.84,11.46-21.25,21.76
			c0.9,5.87,4.42,11.85,9.76,16.37c-11.6,5.73-20.09,13.7-19.9,22.26c0.37,16.27,28.09,34.65,52.21,34.11
			C628.62,360.38,639.6,346.94,639.23,330.67z"/>
		<g>
			<path class="st3" d="M631.04,281.29c2.01,13.04-21.43,27.71-40.75,30.68c-19.32,2.98-34.13-10.57-36.13-23.6
				c-2.01-13.04,9.74-20.79,35.68-24.78C609.16,260.62,629.03,268.26,631.04,281.29z"/>
			<path class="st4" d="M571.58,258.47c-1.19-9.02,9.85-18.5,23.22-20.27c13.36-1.77,23.37,7.79,24.56,16.8
				c1.19,9.01-7.02,14.19-24.96,16.56C581.03,273.32,572.77,267.48,571.58,258.47z"/>
			<path class="st5" d="M544.02,327c-0.37-16.27,30.66-30.47,54.78-31.01c24.12-0.54,40.06,18.4,40.43,34.68
				c0.37,16.27-10.62,29.72-43,30.45C572.12,361.66,544.39,343.28,544.02,327z"/>
		</g>
		<g>
			<defs>
				<path id="SVGID_1_" d="M544.02,327c-0.37-16.27,30.66-30.47,54.78-31.01c24.12-0.54,40.06,18.4,40.43,34.68
					c0.37,16.27-10.62,29.72-43,30.45C572.12,361.66,544.39,343.28,544.02,327z"/>
			</defs>
			<clipPath id="SVGID_2_">
				<use xlink:href="#SVGID_1_"  style="overflow:visible;"/>
			</clipPath>
			<g class="st6">
				<path class="st7" d="M526.91,332.53c0,0,33.31,30.83,109.18,14.31"/>
				<path class="st7" d="M540.65,335.2c0,0,51.91,18.7,102.67-14.12"/>
				<path class="st7" d="M534.93,300.47c0,0,24.05,46.57,114.89,15.27"/>
			</g>
		</g>
	</g>
	<g>
		<text transform="matrix(1 0 0 1 295.1044 303.5527)" class="st8 st9 st10 st11">daniels spa</text>
	</g>
	<g>
		<text transform="matrix(1 0 0 1 320.0234 341.0996)" class="st8 st12 st13 st14">health center</text>
	</g>
</g>
</svg>
