<?xml version="1.0" encoding="utf-8"?>
<!-- Generator: Adobe Illustrator 24.0.1, SVG Export Plug-In . SVG Version: 6.00 Build 0)  -->
<svg version="1.1" id="Lager_1" xmlns="http://www.w3.org/2000/svg" xmlns:xlink="http://www.w3.org/1999/xlink" x="0px" y="0px"
	 viewBox="0 0 1366 768" style="enable-background:new 0 0 1366 768;" xml:space="preserve">
<style type="text/css">
	.st0{opacity:0.81;fill:#01561F;enable-background:new    ;}
	.st1{opacity:0.81;fill:#15471E;enable-background:new    ;}
	.st2{opacity:0.81;fill:#098E42;enable-background:new    ;}
	.st3{fill:none;stroke:#FFFFFF;stroke-linecap:round;stroke-linejoin:round;stroke-miterlimit:10;}
</style>
<g>
	<g>
		<g>
			<path class="st0" d="M707,359.2c0,36.1-29.6,65.4-29.6,65.4s-29.6-29.3-29.6-65.4s29.6-65.4,29.6-65.4S707,323.1,707,359.2z"/>
			<path class="st1" d="M730.7,376.6c-14.5,33.1-53.4,48-53.4,48s-15.4-38.7-0.8-71.8s53.4-48,53.4-48S745.2,343.6,730.7,376.6z"/>
			<path class="st2" d="M623.9,376.6c14.5,33.1,53.4,48,53.4,48s15.4-38.7,0.8-71.8s-53.4-48-53.4-48S609.4,343.6,623.9,376.6z"/>
		</g>
		<path class="st3" d="M693.2,374.5c0,27.7-15.9,50.1-15.9,50.1s-15.9-22.4-15.9-50.1s15.9-50.1,15.9-50.1S693.2,346.8,693.2,374.5z
			"/>
		<path class="st3" d="M676.5,352.9c-14.3,32.5,0.3,70.4,0.8,71.7l0,0l0,0c0.5-0.5,29.6-29.6,29.6-65.3c0-12.9-3.8-24.8-8.6-34.9
			C689.9,331.6,681.6,341.1,676.5,352.9z"/>
		<path class="st3" d="M678.2,352.9c-5.2-11.7-13.4-21.2-21.8-28.5c-4.8,10.1-8.6,22.1-8.6,34.9c0,35.7,28.9,64.7,29.6,65.3
			C677.6,423.9,692.5,385.6,678.2,352.9z"/>
	</g>
</g>
</svg>
